<!DOCTYPE svg PUBLIC "-//W3C//DTD SVG 1.1//EN" "http://www.w3.org/Graphics/SVG/1.1/DTD/svg11.dtd">
<!-- Uploaded to: SVG Repo, www.svgrepo.com, Transformed by: SVG Repo Mixer Tools -->
<svg height="800px" width="800px" version="1.1" id="Layer_1" xmlns="http://www.w3.org/2000/svg" xmlns:xlink="http://www.w3.org/1999/xlink" viewBox="0 0 511.99 511.99" xml:space="preserve" fill="#000000" transform="rotate(180)matrix(1, 0, 0, -1, 0, 0)">
<g id="SVGRepo_bgCarrier" stroke-width="0"/>
<g id="SVGRepo_tracerCarrier" stroke-linecap="round" stroke-linejoin="round"/>
<g id="SVGRepo_iconCarrier"> <path style="fill:#CCD1D9;" d="M124.917,348.038l30.109-30.124l15.062-15.062L472.955,0c0,0,60.233,120.474,0,180.715 c-60.248,60.232-227.572,227.557-227.572,227.557l-30.108-30.124l-30.125,30.124L124.917,348.038z"/> <path style="fill:#E6E9ED;" d="M222.806,385.679l22.578,22.593c0,0,167.324-167.324,227.572-227.557 c19.656-19.656,26.469-45.733,26.75-71.936L222.806,385.679z"/> <path style="fill:#434A54;" d="M34.56,438.395l120.466-120.481l75.311,75.296l-30.14,0.031l-60.217,60.217l-37.656,52.701 c-16.64,16.641-66.186-5.952-82.826-22.593C2.858,466.942,17.92,455.02,34.56,438.395z"/> <g> <path style="fill:#CCD1D9;" d="M94.793,438.395c4.156,4.156,4.156,10.891,0,15.062c-4.156,4.156-10.906,4.156-15.062,0 c-4.156-4.156-4.156-10.906,0-15.062C83.887,434.239,90.637,434.239,94.793,438.395z"/> <path style="fill:#CCD1D9;" d="M124.917,408.271c4.156,4.156,4.156,10.906,0,15.062c-4.156,4.156-10.906,4.156-15.062,0 c-4.156-4.155-4.156-10.905,0-15.062S120.762,404.115,124.917,408.271z"/> <path style="fill:#CCD1D9;" d="M155.042,378.163c4.156,4.156,4.156,10.891,0,15.047c-4.172,4.156-10.906,4.156-15.062,0 c-4.156-4.156-4.156-10.891,0-15.047C144.136,373.991,150.87,373.991,155.042,378.163z"/> </g> <path style="fill:#AAB2BC;" d="M247.055,225.893c4.156,4.156,10.906,4.156,15.062,0l0,0l75.295-75.303l0,0 c4.156-4.156,4.156-10.898,0-15.054L247.055,225.893z"/> </g>
</svg>